<svg width="658" height="130" viewBox="0 0 658 130" fill="none" xmlns="http://www.w3.org/2000/svg">
<path d="M55.8596 28.8322C61.577 28.8322 66.6543 30.5815 71.0916 34.0802C75.6143 37.4935 79.113 42.0588 81.5876 47.7762C84.0623 53.4082 85.2996 59.4242 85.2996 65.8242C85.2996 72.3095 84.0623 78.2828 81.5876 83.7442C79.113 89.1202 75.657 93.3868 71.2196 96.5442C66.7823 99.7015 61.7903 101.28 56.2436 101.28C49.7583 101.28 44.1263 99.9148 39.3476 97.1842C34.569 94.3682 30.985 89.9735 28.5956 84.0002L24.8836 100H0.307617C0.819617 83.9575 1.07562 67.3602 1.07562 50.2082C1.07562 32.8855 0.819617 16.2882 0.307617 0.416153H29.2356L28.8516 16.1602C28.425 27.2535 28.2116 37.1522 28.2116 45.8562C30.5156 40.0535 34.0143 35.7868 38.7076 33.0562C43.4863 30.2402 49.2036 28.8322 55.8596 28.8322ZM42.8036 79.7762C46.8996 79.7762 50.1423 78.4108 52.5316 75.6802C54.921 72.9495 56.1156 69.4082 56.1156 65.0562C56.1156 61.1308 54.793 57.9735 52.1476 55.5842C49.5876 53.1095 46.3876 51.8722 42.5476 51.8722C40.585 51.8722 38.537 52.3415 36.4036 53.2802C34.2703 54.1335 32.4356 55.5842 30.8996 57.6322C29.3636 59.5948 28.5956 62.0695 28.5956 65.0562C28.5956 70.3468 29.7903 74.1442 32.1796 76.4482C34.5689 78.6668 38.1103 79.7762 42.8036 79.7762Z" fill="white"/>
<path d="M125.638 48.8002C125.552 53.9202 125.51 61.7708 125.51 72.3522C125.51 85.0668 125.595 94.2828 125.766 100H95.5576L95.6856 85.5362C95.8563 69.6642 95.9416 57.4188 95.9416 48.8002C95.9416 40.6082 95.8563 29.0028 95.6856 13.9842L95.5576 0.160156H125.766C125.595 12.2775 125.51 22.1762 125.51 29.8562C125.51 38.3895 125.552 44.7042 125.638 48.8002Z" fill="white"/>
<path d="M177.274 101.28C162.682 101.28 151.93 97.9522 145.018 91.2962C138.191 84.5548 134.778 75.7228 134.778 64.8002C134.778 54.1335 138.191 45.4722 145.018 38.8162C151.93 32.1602 162.682 28.8322 177.274 28.8322C187.087 28.8322 195.279 30.4535 201.85 33.6962C208.506 36.8535 213.412 41.1628 216.57 46.6242C219.727 52.0002 221.306 58.0588 221.306 64.8002C221.306 75.8082 217.636 84.6402 210.298 91.2962C203.044 97.9522 192.036 101.28 177.274 101.28ZM177.786 79.5202C183.332 79.5202 187.471 78.1975 190.202 75.5522C192.932 72.9068 194.298 69.3655 194.298 64.9282C194.298 60.7468 192.932 57.3335 190.202 54.6882C187.471 51.9575 183.332 50.5922 177.786 50.5922C172.239 50.5922 168.186 51.9148 165.626 54.5602C163.066 57.2055 161.786 60.6615 161.786 64.9282C161.786 69.3655 163.066 72.9068 165.626 75.5522C168.186 78.1975 172.239 79.5202 177.786 79.5202Z" fill="white"/>
<path d="M271.524 101.28C256.932 101.28 246.18 97.9522 239.268 91.2962C232.441 84.5548 229.028 75.7228 229.028 64.8002C229.028 54.1335 232.441 45.4722 239.268 38.8162C246.18 32.1602 256.932 28.8322 271.524 28.8322C281.337 28.8322 289.529 30.4535 296.1 33.6962C302.756 36.8535 307.662 41.1628 310.82 46.6242C313.977 52.0002 315.556 58.0588 315.556 64.8002C315.556 75.8082 311.886 84.6402 304.548 91.2962C297.294 97.9522 286.286 101.28 271.524 101.28ZM272.036 79.5202C277.582 79.5202 281.721 78.1975 284.452 75.5522C287.182 72.9068 288.548 69.3655 288.548 64.9282C288.548 60.7468 287.182 57.3335 284.452 54.6882C281.721 51.9575 277.582 50.5922 272.036 50.5922C266.489 50.5922 262.436 51.9148 259.876 54.5602C257.316 57.2055 256.036 60.6615 256.036 64.9282C256.036 69.3655 257.316 72.9068 259.876 75.5522C262.436 78.1975 266.489 79.5202 272.036 79.5202Z" fill="white"/>
<path d="M380.494 28.8322C386.04 28.8322 391.032 30.4108 395.47 33.5682C399.907 36.7255 403.363 41.0348 405.838 46.4962C408.312 51.8722 409.55 57.8028 409.55 64.2882C409.55 70.6882 408.312 76.7468 405.838 82.4642C403.363 88.0962 399.864 92.6615 395.342 96.1602C390.904 99.5735 385.827 101.28 380.11 101.28C373.454 101.28 367.736 99.9148 362.958 97.1842C358.264 94.3682 354.766 90.0588 352.462 84.2562C352.462 89.1202 352.632 96.9282 352.974 107.68C353.315 118.091 353.486 125.43 353.486 129.696H324.558C325.07 113.824 325.326 97.2268 325.326 79.9042C325.326 62.5815 325.07 45.9842 324.558 30.1122H349.134L352.846 46.1122C355.235 40.1388 358.819 35.7868 363.598 33.0562C368.376 30.2402 374.008 28.8322 380.494 28.8322ZM366.798 78.2402C370.638 78.2402 373.838 77.0455 376.398 74.6562C379.043 72.1815 380.366 68.9815 380.366 65.0562C380.366 60.7042 379.171 57.1628 376.782 54.4322C374.392 51.7015 371.15 50.3362 367.054 50.3362C362.36 50.3362 358.819 51.4882 356.43 53.7922C354.04 56.0108 352.846 59.7655 352.846 65.0562C352.846 68.0428 353.614 70.5602 355.15 72.6082C356.686 74.5708 358.52 76.0215 360.654 76.9602C362.787 77.8135 364.835 78.2402 366.798 78.2402Z" fill="white"/>
<path d="M444.542 68.0002C445.224 71.7548 446.888 74.8268 449.534 77.2162C452.264 79.5202 456.104 80.6722 461.054 80.6722C464.638 80.6722 468.008 79.9895 471.166 78.6242C474.323 77.1735 476.84 75.1682 478.718 72.6082C484.435 75.4242 492.03 78.4535 501.502 81.6962C498.856 87.6695 494.035 92.4482 487.038 96.0322C480.126 99.5308 471.08 101.28 459.902 101.28C445.395 101.28 434.643 97.9522 427.646 91.2962C420.734 84.5548 417.278 75.7228 417.278 64.8002C417.278 54.1335 420.734 45.4722 427.646 38.8162C434.558 32.1602 445.31 28.8322 459.902 28.8322C468.606 28.8322 476.158 30.2828 482.558 33.1842C488.958 36.0855 493.864 40.1388 497.278 45.3442C500.691 50.4642 502.398 56.3522 502.398 63.0082C502.398 65.2268 502.312 66.8908 502.142 68.0002H444.542ZM461.694 48.1602C457.427 48.1602 453.928 48.9708 451.198 50.5922C448.467 52.2135 446.547 54.4322 445.438 57.2482H475.646C474.622 54.5175 472.958 52.3415 470.654 50.7202C468.35 49.0135 465.363 48.1602 461.694 48.1602Z" fill="white"/>
<path d="M541.004 49.0562C544.588 36.1708 553.505 29.7282 567.756 29.7282C570.23 29.7282 572.62 29.8988 574.924 30.2402L570.828 58.9122C564.684 56.6082 559.649 55.4562 555.724 55.4562C550.86 55.4562 547.276 56.9068 544.972 59.8082C542.668 62.7095 541.516 66.5922 541.516 71.4562V71.3282L541.388 79.7762C541.388 85.8348 541.558 92.5762 541.9 100H511.308C511.99 87.7122 512.332 76.1068 512.332 65.1842C512.332 54.2615 511.99 42.5708 511.308 30.1122C516.94 30.3682 521.249 30.4962 524.236 30.4962C527.393 30.4962 531.702 30.3682 537.164 30.1122L541.004 49.0562Z" fill="white"/>
<path d="M617.527 101.28C610.359 101.28 603.063 100.299 595.639 98.3362C588.3 96.2882 581.388 93.2162 574.903 89.1202L588.343 70.8162C592.268 73.6322 597.004 75.8508 602.551 77.4722C608.097 79.0082 612.876 79.7762 616.887 79.7762C620.727 79.7762 623.671 79.2642 625.719 78.2402C627.852 77.1308 628.919 75.7228 628.919 74.0162C628.919 72.6508 628.407 71.5842 627.383 70.8162C626.359 70.0482 624.951 69.6642 623.159 69.6642C622.049 69.6642 620.769 69.7068 619.319 69.7922C617.953 69.8775 616.844 69.9628 615.991 70.0482C611.553 70.5602 606.988 70.8162 602.295 70.8162C594.7 70.8162 588.513 69.4082 583.735 66.5922C579.041 63.6908 576.695 58.9975 576.695 52.5122C576.695 45.0028 580.236 39.2002 587.319 35.1042C594.401 30.9228 604.812 28.8322 618.551 28.8322C625.292 28.8322 632.076 29.8135 638.903 31.7762C645.815 33.6535 651.916 36.5122 657.207 40.3522L642.487 55.2002C637.623 52.6402 633.057 50.8482 628.791 49.8242C624.609 48.7148 620.385 48.1602 616.119 48.1602C613.132 48.1602 610.572 48.7575 608.439 49.9522C606.305 51.1468 605.239 52.5122 605.239 54.0482C605.239 55.2428 605.665 56.1815 606.519 56.8642C607.457 57.5468 608.652 57.8882 610.103 57.8882C611.553 57.8882 613.559 57.7602 616.119 57.5042C622.348 57.0775 626.999 56.8642 630.071 56.8642C638.945 56.8642 645.815 58.3575 650.679 61.3442C655.543 64.3308 657.975 68.8962 657.975 75.0402C657.975 84.2562 654.391 90.9548 647.223 95.1362C640.055 99.2322 630.156 101.28 617.527 101.28Z" fill="white"/>
</svg>
