<svg width="511" height="156" viewBox="0 0 511 156" fill="none" xmlns="http://www.w3.org/2000/svg">
<path d="M42.25 122.333C35.8438 122.333 30.2813 121.094 25.5625 118.625C20.8542 116.156 17.125 112.885 14.375 108.813L12.7292 109.125V120.688H0V0H12.7292V47.4583L14.375 47.7708C20.9271 37.8854 30.4479 32.9375 42.9375 32.9375C50.0208 32.9375 56.2135 34.5781 61.5208 37.8542C66.8229 41.1354 70.9479 46.1198 73.8958 52.8125C76.8385 59.4948 78.3125 67.7813 78.3125 77.6667C78.3125 87.4583 76.7604 95.7031 73.6667 102.396C70.5677 109.078 66.3125 114.073 60.8958 117.375C55.4792 120.682 49.2604 122.333 42.25 122.333ZM39.1875 110.938C56.3646 110.938 64.9583 99.849 64.9583 77.6667C64.9583 66.1667 62.7188 57.7396 58.25 52.375C53.776 47.0156 47.4219 44.3333 39.1875 44.3333C31.1302 44.3333 24.7083 47.0833 19.9167 52.5833C15.125 58.0729 12.7292 66.4323 12.7292 77.6667C12.7292 88.8646 15.125 97.2083 19.9167 102.708C24.7083 108.198 31.1302 110.938 39.1875 110.938Z" fill="white"/>
<path d="M99.9621 122.333C93.8788 122.333 89.0871 120.604 85.5871 117.146C82.0976 113.677 80.358 108.51 80.358 101.646V0H93.0871V100.771C93.0871 104.37 93.7746 106.969 95.1496 108.563C96.5351 110.146 98.6913 110.938 101.608 110.938C103.368 110.938 105.16 110.646 106.983 110.063L108.087 110.375L109.566 120.375C108.618 121 107.275 121.479 105.525 121.813C103.785 122.156 101.931 122.333 99.9621 122.333Z" fill="white"/>
<path d="M131.125 122.333C124.468 122.333 118.692 121.047 113.791 118.479C108.901 115.896 105.13 112.188 102.479 107.354C99.8226 102.51 98.4996 96.724 98.4996 90C98.4996 86.1563 98.9632 82.0417 99.8955 77.6667C102.963 63.099 108.651 52 116.958 44.375C125.26 36.75 135.817 32.9375 148.625 32.9375C155.276 32.9375 161.062 34.2292 165.979 36.8125C170.895 39.3854 174.666 43.1042 177.291 47.9792C179.927 52.8438 181.25 58.625 181.25 65.3333C181.25 69.1979 180.776 73.3073 179.833 77.6667C176.76 92.1979 171.073 103.271 162.77 110.896C154.479 118.521 143.927 122.333 131.125 122.333ZM132.77 110.938C141.354 110.938 148.505 108.229 154.229 102.813C159.963 97.3958 164.026 89.0156 166.416 77.6667C167.302 73.349 167.75 69.5781 167.75 66.3542C167.75 59.0208 165.875 53.5208 162.125 49.8542C158.375 46.1771 153.323 44.3333 146.979 44.3333C138.395 44.3333 131.229 47.0573 125.479 52.5C119.729 57.9479 115.651 66.3333 113.25 77.6667C112.359 81.9479 111.916 85.6979 111.916 88.9167C111.916 96.25 113.802 101.76 117.583 105.438C121.359 109.104 126.422 110.938 132.77 110.938Z" fill="white"/>
<path d="M207.892 122.333C201.236 122.333 195.46 121.047 190.559 118.479C185.668 115.896 181.897 112.188 179.246 107.354C176.59 102.51 175.267 96.724 175.267 90C175.267 86.1563 175.73 82.0417 176.663 77.6667C179.73 63.099 185.418 52 193.725 44.375C202.027 36.75 212.585 32.9375 225.392 32.9375C232.043 32.9375 237.829 34.2292 242.746 36.8125C247.663 39.3854 251.434 43.1042 254.059 47.9792C256.694 52.8438 258.017 58.625 258.017 65.3333C258.017 69.1979 257.543 73.3073 256.6 77.6667C253.527 92.1979 247.84 103.271 239.538 110.896C231.246 118.521 220.694 122.333 207.892 122.333ZM209.538 110.938C218.121 110.938 225.272 108.229 230.996 102.813C236.73 97.3958 240.793 89.0156 243.184 77.6667C244.069 73.349 244.517 69.5781 244.517 66.3542C244.517 59.0208 242.642 53.5208 238.892 49.8542C235.142 46.1771 230.09 44.3333 223.746 44.3333C215.163 44.3333 207.996 47.0573 202.246 52.5C196.496 57.9479 192.418 66.3333 190.017 77.6667C189.126 81.9479 188.684 85.6979 188.684 88.9167C188.684 96.25 190.569 101.76 194.35 105.438C198.126 109.104 203.189 110.938 209.538 110.938Z" fill="white"/>
<path d="M242.43 155.5L268.117 34.5833H280.847L278.18 47.1458L279.742 47.4583C282.56 43.2917 286.623 39.8333 291.93 37.0833C297.232 34.3229 303.268 32.9375 310.034 32.9375C315.492 32.9375 320.352 34.1667 324.617 36.625C328.893 39.0729 332.253 42.7396 334.701 47.625C337.143 52.5156 338.367 58.4479 338.367 65.4167C338.367 70.099 337.794 75.1198 336.659 80.4792C334.727 89.5365 331.628 97.1875 327.367 103.438C323.102 109.688 317.888 114.406 311.722 117.583C305.555 120.75 298.664 122.333 291.055 122.333C285.498 122.333 280.518 121.188 276.117 118.896C271.711 116.604 268.602 113.224 266.784 108.75L265.076 109.063L255.159 155.5H242.43ZM290.992 110.938C308.211 110.938 319.19 99.8281 323.93 77.6042C324.914 73.0208 325.409 68.9115 325.409 65.2708C325.409 58.0781 323.638 52.7917 320.097 49.4167C316.565 46.0312 311.602 44.3333 305.201 44.3333C299.992 44.3333 295.159 45.4792 290.701 47.7708C286.253 50.0625 282.409 53.5781 279.159 58.3125C275.909 63.0521 273.524 68.9583 272.013 76.0417C271.024 80.8229 270.534 85.1406 270.534 89C270.534 96.4896 272.336 102.016 275.951 105.583C279.576 109.156 284.586 110.938 290.992 110.938Z" fill="white"/>
<path d="M406.701 80.5625H347.534C347.893 91.0208 350.399 98.7031 355.055 103.604C359.722 108.495 366.107 110.938 374.222 110.938C380.373 110.938 385.315 109.849 389.055 107.667C392.805 105.474 395.748 102.036 397.888 97.3542H399.513L407.805 102.271C405.305 108.51 401.305 113.411 395.805 116.979C390.315 120.552 383.123 122.333 374.222 122.333C365.899 122.333 358.748 120.693 352.763 117.417C346.774 114.141 342.164 109.167 338.93 102.5C335.706 95.8333 334.097 87.5573 334.097 77.6667C334.097 67.8906 335.795 59.6458 339.201 52.9375C342.617 46.2188 347.274 41.2031 353.18 37.8958C359.097 34.5938 365.852 32.9375 373.451 32.9375C384.477 32.9375 393.086 36.0521 399.284 42.2708C405.477 48.4948 408.602 57.7188 408.659 69.9375C408.659 74.7292 408.555 77.9583 408.347 79.625L406.701 80.5625ZM396.097 69.9375C395.888 60.7865 393.852 54.125 389.992 49.9583C386.143 45.7917 380.628 43.7083 373.451 43.7083C365.909 43.7083 359.982 45.8073 355.68 50C351.388 54.1979 348.774 60.8438 347.847 69.9375H396.097Z" fill="white"/>
<path d="M409.38 120.688V34.5833H421.484V48.0833L423.13 48.4792C427.13 38.7031 434.676 33.8125 445.775 33.8125C451.65 33.8125 456.046 34.875 458.963 37L455.671 47.7708L454.13 48.0833C450.89 46.474 447.348 45.6667 443.505 45.6667C436.63 45.6667 431.343 48.2448 427.65 53.3958C423.952 58.5521 422.109 66.9062 422.109 78.4583V120.688H409.38Z" fill="white"/>
<path d="M478.119 122.333C472.702 122.333 467.687 121.615 463.077 120.188C458.478 118.76 454.588 116.792 451.411 114.292C448.244 111.792 446.004 108.979 444.702 105.854L452.202 98.0417H453.827C456.645 102.323 460.025 105.542 463.973 107.708C467.931 109.865 472.645 110.938 478.119 110.938C484.463 110.938 489.291 109.703 492.598 107.229C495.9 104.76 497.556 101.307 497.556 96.875C497.556 93.5 496.546 90.7083 494.536 88.5C492.536 86.2813 489.296 84.6198 484.827 83.5208L470.306 79.9375C462.556 78.0625 456.895 75.099 453.327 71.0417C449.754 66.9896 447.973 61.9688 447.973 55.9792C447.973 51.2865 449.166 47.2083 451.556 43.75C453.958 40.2917 457.411 37.625 461.911 35.75C466.411 33.875 471.754 32.9375 477.952 32.9375C485.869 32.9375 492.103 34.0521 496.661 36.2708C501.213 38.4792 504.765 41.5625 507.307 45.5208L500.119 52.5417H498.577C495.812 49.3646 492.806 47.0729 489.556 45.6667C486.306 44.2656 482.437 43.5625 477.952 43.5625C472.286 43.5625 467.937 44.5781 464.911 46.6042C461.895 48.6354 460.39 51.5729 460.39 55.4167C460.39 58.9167 461.452 61.7396 463.577 63.875C465.713 66 469.442 67.7083 474.765 69L489.036 72.4375C496.536 74.2188 501.952 77.1615 505.286 81.2708C508.619 85.3854 510.286 90.5365 510.286 96.7292C510.286 101.771 509.083 106.224 506.682 110.083C504.291 113.932 500.671 116.938 495.827 119.104C490.994 121.255 485.088 122.333 478.119 122.333Z" fill="white"/>
</svg>
