<svg width="1257" height="405" viewBox="0 0 1257 405" fill="none" xmlns="http://www.w3.org/2000/svg">
<path d="M137.301 266.603L18.7995 381.911C11.7807 388.741 0 383.769 0 373.978V125.433C0 122.428 1.22136 119.553 3.38377 117.467L121.885 3.12736C128.917 -3.65713 140.651 1.32426 140.651 11.0936V258.669C140.651 261.657 139.443 264.519 137.301 266.603Z" fill="#FFF000"/>
<path d="M276.844 266.603L158.343 381.911C151.324 388.741 139.544 383.769 139.544 373.978V125.433C139.544 122.428 140.765 119.553 142.927 117.467L261.429 3.12736C268.46 -3.65713 280.195 1.32426 280.195 11.0936V258.669C280.195 261.657 278.986 264.519 276.844 266.603Z" fill="#FFF000"/>
<path d="M416.388 266.603L297.887 381.911C290.868 388.741 279.087 383.769 279.087 373.978V125.433C279.087 122.428 280.309 119.553 282.471 117.467L400.972 3.12736C408.004 -3.65713 419.738 1.32426 419.738 11.0936V258.669C419.738 261.657 418.53 264.519 416.388 266.603Z" fill="#FFF000"/>
<path d="M555.932 266.603L437.43 381.911C430.412 388.741 418.631 383.769 418.631 373.978V125.433C418.631 122.428 419.852 119.553 422.015 117.467L540.516 3.12736C547.547 -3.65713 559.282 1.32426 559.282 11.0936V258.669C559.282 261.657 558.074 264.519 555.932 266.603Z" fill="#FFF000"/>
<path d="M695.475 266.603L576.974 381.911C569.955 388.741 558.174 383.769 558.174 373.978V125.433C558.174 122.428 559.396 119.553 561.558 117.467L680.06 3.12736C687.091 -3.65713 698.826 1.32426 698.826 11.0936V258.669C698.826 261.657 697.617 264.519 695.475 266.603Z" fill="#FFF000"/>
<path d="M835.019 266.603L716.518 381.911C709.499 388.741 697.718 383.769 697.718 373.978V125.433C697.718 122.428 698.939 119.553 701.102 117.467L819.603 3.12736C826.635 -3.65713 838.369 1.32426 838.369 11.0936V258.669C838.369 261.657 837.161 264.519 835.019 266.603Z" fill="#FFF000"/>
<path d="M974.563 266.603L856.061 381.911C849.042 388.741 837.262 383.769 837.262 373.978V125.433C837.262 122.428 838.483 119.553 840.645 117.467L959.147 3.12736C966.178 -3.65713 977.913 1.32426 977.913 11.0936V258.669C977.913 261.657 976.705 264.519 974.563 266.603Z" fill="#FFF000"/>
<path d="M1114.11 277.675L995.605 392.983C988.586 399.813 976.805 394.841 976.805 385.049V136.504C976.805 133.5 978.027 130.625 980.189 128.538L1098.69 14.1989C1105.72 7.41444 1117.46 12.3958 1117.46 22.1652V269.741C1117.46 272.729 1116.25 275.59 1114.11 277.675Z" fill="#FFF000"/>
<path d="M1253.65 286.532L1135.15 401.84C1128.13 408.67 1116.35 403.698 1116.35 393.906V145.362C1116.35 142.357 1117.57 139.482 1119.73 137.395L1238.23 23.0562C1245.27 16.2717 1257 21.2531 1257 31.0225V278.598C1257 281.586 1255.79 284.448 1253.65 286.532Z" fill="#FFF000"/>
<path d="M159.991 229.574C157.037 231.928 153.192 233.754 148.457 235.052C143.722 236.351 137.895 237 130.975 237C124.095 237 116.77 236.371 109 235.113V154.887C116.851 153.629 123.65 153 129.396 153C135.183 153 139.918 153.548 143.601 154.643C147.324 155.739 150.359 157.22 152.706 159.087C157.32 162.699 159.627 167.386 159.627 173.148C159.627 178.87 157.542 183.617 153.374 187.391C158.311 188.933 162.136 191.855 164.847 196.157C167.316 200.012 168.55 204.293 168.55 209C168.55 213.667 167.862 217.664 166.486 220.991C165.151 224.319 162.985 227.18 159.991 229.574ZM125.086 185.139C126.786 185.423 128.911 185.565 131.46 185.565C134.01 185.565 136.094 185.241 137.713 184.591C139.372 183.901 140.647 183.049 141.537 182.035C142.994 180.371 143.722 178.058 143.722 175.096C143.722 168.887 140.08 165.783 132.796 165.783C129.72 165.783 127.15 165.904 125.086 166.148V185.139ZM134.07 198.165C130.671 198.165 127.676 198.388 125.086 198.835V222.757C127.919 223.487 130.894 223.852 134.01 223.852C137.126 223.852 139.858 223.487 142.205 222.757C144.592 221.986 146.596 220.951 148.214 219.652C151.492 216.974 153.131 213.565 153.131 209.426C153.131 201.919 146.778 198.165 134.07 198.165Z" fill="black"/>
<path d="M256.963 235.478C251.014 235.478 247.068 235.6 245.126 235.843V154.157C246.097 154.4 248.1 154.522 251.136 154.522C254.211 154.522 257.772 154.441 261.819 154.278V220.87H274.385C278.027 220.87 280.941 220.748 283.126 220.504C282.843 230 282.701 234.93 282.701 235.296V235.904C278.735 235.62 272.078 235.478 262.73 235.478H256.963Z" fill="black"/>
<path d="M367.108 225.861C363.425 222.33 360.512 218.09 358.367 213.139C356.262 208.188 355.21 202.771 355.21 196.887C355.21 190.962 356.202 185.362 358.185 180.087C360.168 174.812 363 170.165 366.683 166.148C370.366 162.13 374.817 158.945 380.038 156.591C385.258 154.197 391.106 153 397.581 153C408.75 153 418.159 156.53 425.808 163.591C433.983 171.139 438.07 181.325 438.07 194.148C438.07 206.565 433.861 216.893 425.444 225.13C420.264 230.203 414.092 233.693 406.929 235.6C403.409 236.533 399.281 237 394.546 237C389.851 237 385.015 236.026 380.038 234.078C375.101 232.13 370.791 229.391 367.108 225.861ZM372.086 196.035C372.086 199.809 372.713 203.278 373.967 206.443C375.222 209.609 376.962 212.328 379.188 214.6C383.923 219.388 390.013 221.783 397.46 221.783C404.542 221.783 410.228 219.49 414.517 214.904C418.888 210.157 421.073 203.684 421.073 195.487C421.073 187.777 418.989 181.345 414.821 176.191C410.329 170.672 404.177 167.913 396.367 167.913C388.799 167.913 382.79 170.713 378.338 176.313C374.17 181.548 372.086 188.122 372.086 196.035Z" fill="black"/>
<path d="M523.752 225.861C520.069 222.33 517.155 218.09 515.01 213.139C512.906 208.188 511.854 202.771 511.854 196.887C511.854 190.962 512.845 185.362 514.828 180.087C516.811 174.812 519.644 170.165 523.327 166.148C527.009 162.13 531.461 158.945 536.681 156.591C541.902 154.197 547.75 153 554.225 153C565.394 153 574.803 156.53 582.452 163.591C590.626 171.139 594.714 181.325 594.714 194.148C594.714 206.565 590.505 216.893 582.087 225.13C576.907 230.203 570.736 233.693 563.573 235.6C560.052 236.533 555.924 237 551.189 237C546.495 237 541.659 236.026 536.681 234.078C531.744 232.13 527.434 229.391 523.752 225.861ZM528.729 196.035C528.729 199.809 529.357 203.278 530.611 206.443C531.866 209.609 533.606 212.328 535.832 214.6C540.566 219.388 546.657 221.783 554.103 221.783C561.185 221.783 566.871 219.49 571.161 214.904C575.532 210.157 577.717 203.684 577.717 195.487C577.717 187.777 575.633 181.345 571.464 176.191C566.972 170.672 560.821 167.913 553.011 167.913C545.443 167.913 539.433 170.713 534.982 176.313C530.813 181.548 528.729 188.122 528.729 196.035Z" fill="black"/>
<path d="M672.625 154.096C678.25 153.365 684.017 153 689.926 153C700.933 153 709.29 155.597 714.996 160.791C720.743 165.945 723.616 173.675 723.616 183.983C723.616 193.194 720.48 200.478 714.207 205.835C708.339 210.867 700.792 213.383 691.565 213.383C690.512 213.383 689.359 213.322 688.105 213.2V235.478H672.625V154.096ZM691.747 167.67C690.533 167.67 689.319 167.71 688.105 167.791V199.809C689.4 199.971 690.978 200.052 692.839 200.052C694.701 200.052 696.643 199.667 698.667 198.896C700.69 198.084 702.39 196.968 703.766 195.548C706.639 192.586 708.076 188.69 708.076 183.861C708.076 173.067 702.633 167.67 691.747 167.67Z" fill="black"/>
<path d="M840.074 220.87C842.583 220.87 844.323 220.626 845.295 220.139L845.537 220.2L844.93 235.478H799.464V154.096C800.556 154.177 801.77 154.238 803.106 154.278L807.355 154.4C810.188 154.481 813.263 154.522 816.582 154.522C825.849 154.522 835.015 154.359 844.08 154.035C843.635 157.606 843.413 162.374 843.413 168.339C843.413 168.988 843.453 169.475 843.534 169.8L843.413 169.983C841.308 169.374 838.314 169.07 834.429 169.07H815.307V184.591H829.694C834.145 184.591 836.816 184.47 837.707 184.226L837.889 199.261C835.946 199.058 833.437 198.957 830.362 198.957H815.307V220.87H840.074Z" fill="black"/>
<path d="M951.251 204.009C950.037 204.09 948.742 204.13 947.366 204.13C945.99 204.13 943.946 204.029 941.235 203.826V235.478H925.148V154.096C930.814 153.365 937.775 153 946.03 153C957.281 153 965.658 155.09 971.162 159.27C976.706 163.409 979.478 169.82 979.478 178.504C979.478 185.241 976.949 191.003 971.89 195.791C970.231 197.333 968.329 198.672 966.184 199.809L978.567 225.983C980.996 231.38 982.857 234.586 984.152 235.6L983.849 235.904C979.923 235.255 973.752 235.275 965.334 235.965L951.251 204.009ZM947.184 167.365C945.12 167.365 943.137 167.467 941.235 167.67V190.922C943.218 191.206 945.545 191.348 948.216 191.348C950.887 191.348 953.133 191.125 954.954 190.678C956.775 190.191 958.353 189.461 959.689 188.487C962.562 186.336 963.999 183.11 963.999 178.809C963.999 174.507 962.501 171.484 959.507 169.739C956.714 168.157 952.607 167.365 947.184 167.365Z" fill="black"/>
<path d="M1109.78 159.026L1108.62 176.922L1108.2 177.043C1105.2 172.539 1100.1 169.617 1092.9 168.278C1090.63 167.832 1088.45 167.609 1086.34 167.609C1084.28 167.609 1082.5 167.791 1081 168.157C1079.55 168.522 1078.29 169.049 1077.24 169.739C1075.01 171.2 1073.9 173.107 1073.9 175.461C1073.9 178.545 1074.87 180.858 1076.81 182.4C1079.24 184.267 1083.27 185.586 1088.89 186.357C1094.52 187.087 1099.03 188.101 1102.43 189.4C1105.83 190.699 1108.62 192.342 1110.81 194.33C1114.94 198.064 1117 203.339 1117 210.157C1117 219.084 1113.64 225.962 1106.92 230.791C1101.18 234.93 1093.93 237 1085.19 237C1078.15 237 1071.19 235.661 1064.31 232.983C1062.04 232.09 1060.06 231.055 1058.36 229.878L1059.03 209.548L1059.27 209.365C1064.29 218.049 1072.52 222.391 1083.98 222.391C1092.11 222.391 1097.49 220.423 1100.12 216.487C1101.01 215.148 1101.46 213.667 1101.46 212.043C1101.46 210.38 1101.2 209.02 1100.67 207.965C1100.14 206.87 1099.27 205.936 1098.06 205.165C1095.71 203.623 1091.77 202.588 1086.22 202.061C1080.68 201.533 1076.15 200.539 1072.63 199.078C1069.11 197.617 1066.29 195.812 1064.19 193.661C1060.38 189.765 1058.48 184.328 1058.48 177.348C1058.48 170.125 1061.01 164.281 1066.07 159.817C1071.21 155.272 1078.13 153 1086.83 153C1095.57 153 1103.22 155.009 1109.78 159.026Z" fill="black"/>
</svg>
