<svg width="1039" height="87" viewBox="0 0 1039 87" fill="none" xmlns="http://www.w3.org/2000/svg">
<path d="M53.3325 78.9375C50.2909 81.3542 46.3325 83.2292 41.4575 84.5625C36.5825 85.8958 30.5825 86.5625 23.4575 86.5625C16.3742 86.5625 8.83252 85.9167 0.83252 84.625V2.25C8.91585 0.958333 15.9159 0.3125 21.8325 0.3125C27.7909 0.3125 32.6659 0.875 36.4575 2C40.2909 3.125 43.4159 4.64583 45.8325 6.5625C50.5825 10.2708 52.9575 15.0833 52.9575 21C52.9575 26.875 50.8117 31.75 46.52 35.625C51.6034 37.2083 55.5409 40.2083 58.3325 44.625C60.8742 48.5833 62.145 52.9792 62.145 57.8125C62.145 62.6042 61.4367 66.7083 60.02 70.125C58.645 73.5417 56.4159 76.4792 53.3325 78.9375ZM17.395 33.3125C19.145 33.6042 21.3325 33.75 23.9575 33.75C26.5825 33.75 28.7284 33.4167 30.395 32.75C32.1034 32.0417 33.4159 31.1667 34.3325 30.125C35.8325 28.4167 36.5825 26.0417 36.5825 23C36.5825 16.625 32.8325 13.4375 25.3325 13.4375C22.1659 13.4375 19.52 13.5625 17.395 13.8125V33.3125ZM26.645 46.6875C23.145 46.6875 20.0617 46.9167 17.395 47.375V71.9375C20.3117 72.6875 23.3742 73.0625 26.5825 73.0625C29.7909 73.0625 32.6034 72.6875 35.02 71.9375C37.4784 71.1458 39.5409 70.0833 41.2075 68.75C44.5825 66 46.27 62.5 46.27 58.25C46.27 50.5417 39.7284 46.6875 26.645 46.6875Z" fill="black"/>
<path d="M153.175 85C147.05 85 142.988 85.125 140.988 85.375V1.5C141.988 1.75 144.05 1.875 147.175 1.875C150.342 1.875 154.008 1.79167 158.175 1.625V70H171.113C174.863 70 177.863 69.875 180.113 69.625C179.821 79.375 179.675 84.4375 179.675 84.8125V85.4375C175.592 85.1458 168.738 85 159.113 85H153.175Z" fill="black"/>
<path d="M266.58 75.125C262.788 71.5 259.788 67.1458 257.58 62.0625C255.413 56.9792 254.33 51.4167 254.33 45.375C254.33 39.2917 255.351 33.5417 257.393 28.125C259.434 22.7083 262.351 17.9375 266.143 13.8125C269.934 9.6875 274.518 6.41667 279.893 4C285.268 1.54167 291.288 0.3125 297.955 0.3125C309.455 0.3125 319.143 3.9375 327.018 11.1875C335.434 18.9375 339.643 29.3958 339.643 42.5625C339.643 55.3125 335.309 65.9167 326.643 74.375C321.309 79.5833 314.955 83.1667 307.58 85.125C303.955 86.0833 299.705 86.5625 294.83 86.5625C289.997 86.5625 285.018 85.5625 279.893 83.5625C274.809 81.5625 270.372 78.75 266.58 75.125ZM271.705 44.5C271.705 48.375 272.351 51.9375 273.643 55.1875C274.934 58.4375 276.726 61.2292 279.018 63.5625C283.893 68.4792 290.163 70.9375 297.83 70.9375C305.122 70.9375 310.976 68.5833 315.393 63.875C319.893 59 322.143 52.3542 322.143 43.9375C322.143 36.0208 319.997 29.4167 315.705 24.125C311.08 18.4583 304.747 15.625 296.705 15.625C288.913 15.625 282.726 18.5 278.143 24.25C273.851 29.625 271.705 36.375 271.705 44.5Z" fill="black"/>
<path d="M427.86 75.125C424.068 71.5 421.068 67.1458 418.86 62.0625C416.693 56.9792 415.61 51.4167 415.61 45.375C415.61 39.2917 416.631 33.5417 418.673 28.125C420.714 22.7083 423.631 17.9375 427.423 13.8125C431.214 9.6875 435.798 6.41667 441.173 4C446.548 1.54167 452.568 0.3125 459.235 0.3125C470.735 0.3125 480.423 3.9375 488.298 11.1875C496.714 18.9375 500.923 29.3958 500.923 42.5625C500.923 55.3125 496.589 65.9167 487.923 74.375C482.589 79.5833 476.235 83.1667 468.86 85.125C465.235 86.0833 460.985 86.5625 456.11 86.5625C451.277 86.5625 446.298 85.5625 441.173 83.5625C436.089 81.5625 431.652 78.75 427.86 75.125ZM432.985 44.5C432.985 48.375 433.631 51.9375 434.923 55.1875C436.214 58.4375 438.006 61.2292 440.298 63.5625C445.173 68.4792 451.443 70.9375 459.11 70.9375C466.402 70.9375 472.256 68.5833 476.673 63.875C481.173 59 483.423 52.3542 483.423 43.9375C483.423 36.0208 481.277 29.4167 476.985 24.125C472.36 18.4583 466.027 15.625 457.985 15.625C450.193 15.625 444.006 18.5 439.423 24.25C435.131 29.625 432.985 36.375 432.985 44.5Z" fill="black"/>
<path d="M581.14 1.4375C586.932 0.6875 592.869 0.3125 598.953 0.3125C610.286 0.3125 618.89 2.97917 624.765 8.3125C630.682 13.6042 633.64 21.5417 633.64 32.125C633.64 41.5833 630.411 49.0625 623.953 54.5625C617.911 59.7292 610.14 62.3125 600.64 62.3125C599.557 62.3125 598.369 62.25 597.078 62.125V85H581.14V1.4375ZM600.828 15.375C599.578 15.375 598.328 15.4167 597.078 15.5V48.375C598.411 48.5417 600.036 48.625 601.953 48.625C603.869 48.625 605.869 48.2292 607.953 47.4375C610.036 46.6042 611.786 45.4583 613.203 44C616.161 40.9583 617.64 36.9583 617.64 32C617.64 20.9167 612.036 15.375 600.828 15.375Z" fill="black"/>
<path d="M753.545 70C756.128 70 757.92 69.75 758.92 69.25L759.17 69.3125L758.545 85H711.733V1.4375C712.858 1.52083 714.108 1.58333 715.483 1.625L719.858 1.75C722.774 1.83333 725.941 1.875 729.358 1.875C738.899 1.875 748.337 1.70833 757.67 1.375C757.212 5.04167 756.983 9.9375 756.983 16.0625C756.983 16.7292 757.024 17.2292 757.108 17.5625L756.983 17.75C754.816 17.125 751.733 16.8125 747.733 16.8125H728.045V32.75H742.858C747.441 32.75 750.191 32.625 751.108 32.375L751.295 47.8125C749.295 47.6042 746.712 47.5 743.545 47.5H728.045V70H753.545Z" fill="black"/>
<path d="M868.013 52.6875C866.763 52.7708 865.429 52.8125 864.013 52.8125C862.596 52.8125 860.492 52.7083 857.7 52.5V85H841.138V1.4375C846.971 0.6875 854.138 0.3125 862.638 0.3125C874.221 0.3125 882.846 2.45833 888.513 6.75C894.221 11 897.075 17.5833 897.075 26.5C897.075 33.4167 894.471 39.3333 889.263 44.25C887.554 45.8333 885.596 47.2083 883.388 48.375L896.138 75.25C898.638 80.7917 900.554 84.0833 901.888 85.125L901.575 85.4375C897.533 84.7708 891.179 84.7917 882.513 85.5L868.013 52.6875ZM863.825 15.0625C861.7 15.0625 859.658 15.1667 857.7 15.375V39.25C859.742 39.5417 862.138 39.6875 864.888 39.6875C867.638 39.6875 869.95 39.4583 871.825 39C873.7 38.5 875.325 37.75 876.7 36.75C879.658 34.5417 881.138 31.2292 881.138 26.8125C881.138 22.3958 879.596 19.2917 876.513 17.5C873.638 15.875 869.408 15.0625 863.825 15.0625Z" fill="black"/>
<path d="M1031.23 6.5L1030.04 24.875L1029.6 25C1026.52 20.375 1021.27 17.375 1013.85 16C1011.52 15.5417 1009.27 15.3125 1007.1 15.3125C1004.98 15.3125 1003.15 15.5 1001.6 15.875C1000.1 16.25 998.813 16.7917 997.73 17.5C995.438 19 994.292 20.9583 994.292 23.375C994.292 26.5417 995.292 28.9167 997.292 30.5C999.792 32.4167 1003.94 33.7708 1009.73 34.5625C1015.52 35.3125 1020.17 36.3542 1023.67 37.6875C1027.17 39.0208 1030.04 40.7083 1032.29 42.75C1036.54 46.5833 1038.67 52 1038.67 59C1038.67 68.1667 1035.21 75.2292 1028.29 80.1875C1022.38 84.4375 1014.92 86.5625 1005.92 86.5625C998.667 86.5625 991.501 85.1875 984.417 82.4375C982.084 81.5208 980.042 80.4583 978.292 79.25L978.98 58.375L979.23 58.1875C984.397 67.1042 992.876 71.5625 1004.67 71.5625C1013.04 71.5625 1018.58 69.5417 1021.29 65.5C1022.21 64.125 1022.67 62.6042 1022.67 60.9375C1022.67 59.2292 1022.4 57.8333 1021.85 56.75C1021.31 55.625 1020.42 54.6667 1019.17 53.875C1016.75 52.2917 1012.69 51.2292 1006.98 50.6875C1001.27 50.1458 996.605 49.125 992.98 47.625C989.355 46.125 986.459 44.2708 984.292 42.0625C980.376 38.0625 978.417 32.4792 978.417 25.3125C978.417 17.8958 981.022 11.8958 986.23 7.3125C991.522 2.64583 998.647 0.3125 1007.6 0.3125C1016.6 0.3125 1024.48 2.375 1031.23 6.5Z" fill="black"/>
</svg>
