<svg width="113" height="50" viewBox="0 0 113 50" fill="none" xmlns="http://www.w3.org/2000/svg">
<path d="M0.226706 34.3128L0.0843555 32.5592C-0.0421778 31.4218 -0.0263611 30.158 0.131806 28.7678C0.289972 27.3776 0.543039 25.94 0.891006 24.455C1.23897 22.9384 1.60276 21.4692 1.98236 20.0474C2.36196 18.6256 2.70992 17.3144 3.02626 16.1137C3.37422 14.9131 3.61147 13.9179 3.73801 13.128C3.83291 12.4961 3.89617 11.5956 3.92781 10.4265C3.99107 9.22591 4.08597 7.99368 4.21251 6.72986C4.37067 5.46604 4.59211 4.297 4.87681 3.22275C5.16151 2.1485 5.57274 1.4218 6.11051 1.04265C6.90134 0.537126 7.56564 0.284362 8.10341 0.284362C8.60954 0.284362 9.02077 0.458137 9.33711 0.805688C9.65344 1.15324 9.90651 1.59558 10.0963 2.1327C10.2861 2.63823 10.4126 3.20695 10.4759 3.83886C10.5392 4.43918 10.555 5.0079 10.5234 5.54503C10.4285 7.63033 10.1912 9.73144 9.81161 11.8483C9.46364 13.9337 9.08404 16.0032 8.67281 18.0569C8.64117 18.3096 8.54627 18.6888 8.38811 19.1943C8.22994 19.6682 8.07177 20.1738 7.91361 20.7109C7.78707 21.248 7.67636 21.7694 7.58146 22.2749C7.51819 22.7804 7.51819 23.1754 7.58146 23.4597C7.67636 23.9337 7.78707 24.2812 7.91361 24.5024C8.04014 24.6919 8.19831 24.8499 8.38811 24.9763C8.60954 25.0711 8.87842 25.1817 9.19476 25.3081C9.54272 25.4344 9.96977 25.6556 10.4759 25.9716C11.3616 26.5087 11.9469 27.1722 12.2316 27.9621C12.5163 28.7204 12.5795 29.5261 12.4214 30.3791C12.2948 31.2006 11.9785 32.0221 11.4724 32.8436C10.9662 33.6651 10.3494 34.4076 9.62181 35.0711C8.89424 35.7346 8.10341 36.2717 7.24931 36.6825C6.39521 37.0932 5.54111 37.2986 4.68701 37.2986C4.02271 37.2986 3.37422 37.1406 2.74156 36.8246C2.10889 36.5403 1.53949 36.0664 1.03336 35.4028L0.226706 34.3128Z" fill="black"/>
<path d="M15.0052 24.7867L14.9577 22.9384C14.8944 21.7378 14.9261 20.4897 15.0526 19.1943C15.1791 17.8673 15.3373 16.5877 15.5271 15.3555C15.7485 14.0916 15.8751 13.0174 15.9067 12.1327C15.9383 11.722 15.9383 11.1374 15.9067 10.3791C15.9067 9.58926 15.9067 8.75197 15.9067 7.8673C15.9383 6.95103 16.0016 6.03476 16.0965 5.11849C16.1914 4.17062 16.3654 3.31754 16.6185 2.55924C16.8715 1.80095 17.2195 1.18484 17.6624 0.710903C18.1052 0.236968 18.6746 0 19.3706 0H19.5604C20.3512 0.0631922 20.9522 0.505531 21.3635 1.32702C21.7747 2.11691 22.0436 3.12796 22.1701 4.36019C22.2966 5.59242 22.3283 6.95103 22.265 8.43602C22.2017 9.92101 22.091 11.3586 21.9329 12.7488C21.8063 14.139 21.664 15.4028 21.5058 16.5403C21.3793 17.6777 21.3002 18.5308 21.2686 19.0995C21.2053 19.9842 21.2211 20.9795 21.316 22.0853C21.4109 23.1912 21.3476 24.1706 21.1262 25.0237C20.8731 25.94 20.4619 26.6667 19.8925 27.2038C19.3547 27.7409 18.7695 28.0095 18.1369 28.0095C17.694 28.0095 17.2511 27.8515 16.8083 27.5355C16.3654 27.2196 15.97 26.7141 15.622 26.019L15.0052 24.7867ZM16.144 35.3081L15.7169 34.3602C15.4006 33.7283 15.3057 33.0806 15.4322 32.4171C15.5904 31.7536 15.9225 31.169 16.4287 30.6635C16.9348 30.158 17.5358 29.9052 18.2318 29.9052C18.7379 29.9052 19.244 30.0474 19.7502 30.3318C20.4145 30.7425 20.8415 31.2638 21.0313 31.8957C21.2211 32.4961 21.2211 33.0806 21.0313 33.6493C20.8415 34.218 20.4935 34.7077 19.9874 35.1185C19.5129 35.5292 18.9435 35.7346 18.2792 35.7346C18.121 35.7346 17.9787 35.7188 17.8522 35.6872C17.7573 35.6872 17.6307 35.6714 17.4726 35.6398L16.144 35.3081Z" fill="black"/>
<path d="M27.0601 32.7488C26.2692 31.9273 25.8738 31.5166 25.8738 31.5166C25.8738 31.5166 25.7156 31.0111 25.3993 30L24.9248 28.5308L25.1621 26.9668C25.2886 25.9242 25.5891 24.9763 26.0636 24.1232C26.5381 23.2701 27.1391 22.575 27.8667 22.0379C28.6259 21.4692 29.4642 21.1848 30.3816 21.1848C31.2989 21.1848 32.2163 21.485 33.1337 22.0853C34.0194 22.654 34.7944 23.3807 35.4587 24.2654C36.1546 25.1185 36.6924 26.0348 37.072 27.0142C37.4516 27.9621 37.673 28.9258 37.7363 29.9052C37.8312 30.8531 37.7363 31.722 37.4516 32.5118C37.1669 33.2701 36.6766 33.8863 35.9807 34.3602C35.3164 34.8341 34.4148 35.0711 33.276 35.0711C32.3903 35.0711 31.4255 34.9131 30.3816 34.5972C28.9897 34.1864 27.8825 33.5703 27.0601 32.7488Z" fill="black"/>
<path d="M42.5369 32.7488C41.7461 31.9273 41.3507 31.5166 41.3507 31.5166C41.3507 31.5166 41.1925 31.0111 40.8762 30L40.4017 28.5308L40.6389 26.9668C40.7654 25.9242 41.066 24.9763 41.5405 24.1232C42.015 23.2701 42.616 22.575 43.3436 22.0379C44.1028 21.4692 44.941 21.1848 45.8584 21.1848C46.7758 21.1848 47.6931 21.485 48.6105 22.0853C49.4962 22.654 50.2713 23.3807 50.9356 24.2654C51.6315 25.1185 52.1693 26.0348 52.5489 27.0142C52.9285 27.9621 53.1499 28.9258 53.2132 29.9052C53.3081 30.8531 53.2132 31.722 52.9285 32.5118C52.6438 33.2701 52.1534 33.8863 51.4575 34.3602C50.7932 34.8341 49.8917 35.0711 48.7529 35.0711C47.8671 35.0711 46.9023 34.9131 45.8584 34.5972C44.4665 34.1864 43.3594 33.5703 42.5369 32.7488Z" fill="black"/>
<path d="M55.7362 39.5735L55.6887 37.5355C55.6254 36.1453 55.6096 34.7393 55.6413 33.3175C55.6729 31.8641 55.6729 30.316 55.6413 28.673C55.6413 27.7251 55.6413 26.7773 55.6413 25.8294C55.6729 24.8499 55.7994 23.9179 56.0209 23.0332C56.2739 22.1485 56.6535 21.3428 57.1597 20.6161C57.6974 19.8578 58.4566 19.2101 59.4373 18.673C59.9118 18.4202 60.4653 18.2149 61.098 18.0569C61.7307 17.8989 62.3792 17.8199 63.0435 17.8199C63.6445 17.8199 64.2139 17.8989 64.7517 18.0569C65.3211 18.1833 65.8272 18.4044 66.2701 18.7204C66.7129 19.0363 67.0767 19.4471 67.3614 19.9526C67.6461 20.4265 67.7885 21.0111 67.7885 21.7062C67.8201 23.0964 67.7885 24.2812 67.6936 25.2607C67.6303 26.2401 67.4405 27.1406 67.1242 27.9621C66.8395 28.752 66.4124 29.5103 65.843 30.237C65.3052 30.9637 64.5777 31.7852 63.6603 32.7014C62.9011 33.4597 62.4108 34.2496 62.1894 35.0711C61.9679 35.8926 61.9047 36.7299 61.9996 37.5829C62.0945 38.436 62.2843 39.2891 62.569 40.1422C62.8537 41.0269 63.1067 41.8957 63.3282 42.7488C63.5496 43.6335 63.6761 44.5024 63.7078 45.3555C63.771 46.2401 63.597 47.0932 63.1858 47.9147C62.8378 48.673 62.4582 49.2101 62.047 49.5261C61.6358 49.842 61.2087 50 60.7659 50C60.3546 50 59.9592 49.8736 59.5796 49.6209C59.2 49.3997 58.8362 49.0995 58.4883 48.7204C58.1719 48.3728 57.8872 47.9779 57.6342 47.5355C57.3811 47.0932 57.1913 46.6509 57.0648 46.2085C56.5586 44.5972 56.2107 43.0964 56.0209 41.7062L55.7362 39.5735Z" fill="black"/>
<path d="M71.9481 34.3602L70.9042 33.2228C70.2083 32.4961 69.8603 31.7378 69.8603 30.9479C69.8603 30.3476 69.9236 29.7946 70.0501 29.2891C70.1767 28.752 70.5563 28.3886 71.1889 28.1991C71.4104 28.1359 71.6002 28.0411 71.7583 27.9147C71.9165 27.7567 71.9956 27.4566 71.9956 27.0142V26.8246C71.9639 25.8768 72.1379 24.9763 72.5175 24.1232C72.9288 23.2701 73.4665 22.5118 74.1308 21.8483C74.8268 21.1848 75.6334 20.6635 76.5508 20.2844C77.4998 19.8736 78.4804 19.6682 79.4927 19.6682C80.1253 19.6682 80.7264 19.7946 81.2958 20.0474C81.8652 20.3002 82.3555 20.6477 82.7667 21.09C83.2096 21.5008 83.5576 22.0063 83.8106 22.6066C84.0637 23.1754 84.1902 23.7757 84.1902 24.4076C84.1902 25.1027 84.0321 25.782 83.7157 26.4455C83.431 27.0774 83.0672 27.6935 82.6244 28.2938C82.1815 28.8942 81.6754 29.4471 81.106 29.9526C80.5682 30.4265 80.0304 30.8531 79.4927 31.2322C80.6947 31.2954 81.5963 31.6114 82.1973 32.1801C82.7984 32.7488 83.0989 33.3649 83.0989 34.0284C83.0989 34.6604 82.83 35.2607 82.2922 35.8294C81.7861 36.4297 80.9794 36.8088 79.8723 36.9668C79.7141 37.03 79.5559 37.0616 79.3978 37.0616H78.8758C78.2115 37.0616 77.3732 36.8878 76.361 36.5403C75.3487 36.2243 74.3681 35.782 73.4191 35.2133L71.9481 34.3602Z" fill="black"/>
<path d="M86.7384 34.0284L86.5961 32.2275C86.5012 31.0585 86.517 29.8894 86.6435 28.7204C86.8017 27.5197 86.8966 26.5877 86.9282 25.9242C86.9599 25.4186 86.9757 24.8657 86.9757 24.2654C87.0073 23.6335 87.0706 23.0332 87.1655 22.4645C87.292 21.8641 87.4818 21.327 87.7349 20.8531C88.0196 20.3476 88.4466 19.9684 89.016 19.7156C89.3324 19.5577 89.6962 19.4787 90.1074 19.4787C90.7717 19.4787 91.3727 19.6998 91.9105 20.1422C92.4799 20.5529 92.8279 21.1058 92.9544 21.8009C93.1758 21.6746 93.4447 21.5482 93.761 21.4218C94.109 21.2638 94.457 21.1216 94.8049 20.9953C95.1529 20.8373 95.5009 20.7109 95.8488 20.6161C96.1968 20.5213 96.4973 20.4739 96.7504 20.4739C97.1933 20.4739 97.6045 20.5845 97.9841 20.8057C98.3953 20.9953 98.7275 21.2638 98.9805 21.6114C99.2652 21.9273 99.455 22.3065 99.5499 22.7488C99.6765 23.1596 99.6765 23.5861 99.5499 24.0284C99.4234 24.5656 99.1703 24.9921 98.7907 25.3081C98.4111 25.624 97.9841 25.8926 97.5096 26.1137C97.0351 26.3349 96.5448 26.5403 96.0386 26.7299C95.5325 26.8878 95.0896 27.109 94.71 27.3934C94.1406 27.8041 93.7294 28.1517 93.4763 28.436C93.2233 28.6888 93.0335 28.9573 92.9069 29.2417C92.812 29.5261 92.7488 29.8578 92.7171 30.237C92.6855 30.6161 92.6222 31.09 92.5273 31.6588C92.4324 32.1643 92.385 32.7014 92.385 33.2701C92.385 33.8073 92.3217 34.3286 92.1952 34.8341C92.1003 35.3081 91.8789 35.703 91.5309 36.019C91.2146 36.3665 90.661 36.5561 89.8701 36.5877C89.8069 36.5877 89.7594 36.5877 89.7278 36.5877C89.7278 36.6193 89.712 36.6351 89.6803 36.6351C88.6048 36.6351 87.8456 36.2085 87.4027 35.3555L86.7384 34.0284Z" fill="black"/>
<path d="M102.88 36.4455L102.453 35.8294C102.136 35.387 101.994 34.9289 102.025 34.455C102.089 33.9494 102.263 33.4439 102.547 32.9384C102.832 32.4329 103.148 31.9747 103.496 31.564C104.066 30.8689 104.461 30.4265 104.683 30.237C104.904 30.0158 105.015 29.8578 105.015 29.763C105.046 29.6367 105.015 29.4629 104.92 29.2417C104.857 28.9889 104.809 28.4992 104.778 27.7725C104.714 25.9716 104.952 24.455 105.489 23.2228C106.059 21.9905 107.198 20.9163 108.906 20C109.317 19.7788 109.76 19.6682 110.234 19.6682C110.677 19.6682 111.088 19.7788 111.468 20C111.848 20.1896 112.164 20.4581 112.417 20.8057C112.67 21.1532 112.844 21.5482 112.939 21.9905C113.034 22.4329 113.018 22.8752 112.892 23.3175C112.828 23.6019 112.702 23.8389 112.512 24.0284C112.322 24.218 112.117 24.3918 111.895 24.5498C111.705 24.6761 111.515 24.8183 111.326 24.9763C111.168 25.1027 111.041 25.2765 110.946 25.4976C110.82 25.8136 110.756 26.0822 110.756 26.3033C110.788 26.4929 110.835 26.6825 110.899 26.872C110.962 27.03 111.025 27.2196 111.088 27.4408C111.183 27.6619 111.231 27.9779 111.231 28.3886C111.231 29.1469 111.104 30.0158 110.851 30.9953C110.598 31.9747 110.203 32.9068 109.665 33.7915C109.159 34.6761 108.526 35.4186 107.767 36.019C107.039 36.6509 106.201 36.9668 105.252 36.9668C104.809 36.9668 104.414 36.9036 104.066 36.7773L102.88 36.4455Z" fill="black"/>
</svg>
