<svg width="595" height="90" viewBox="0 0 595 90" fill="none" xmlns="http://www.w3.org/2000/svg">
<path d="M70.5345 61.2484C70.7905 62.7844 70.7905 64.7044 70.5345 66.3684C70.2785 69.0564 69.3825 72.2564 67.7185 75.3284C66.6945 77.1204 65.5425 78.6564 64.3905 80.0644C62.8545 81.6004 61.4465 82.8804 59.7825 84.0324C57.2225 85.6964 54.4065 87.1044 51.4625 87.7444C46.0865 88.8964 39.9425 88.8964 33.6705 88.7684C20.1025 88.5124 17.5425 87.1044 0.646484 88.7684C2.31048 59.7124 2.43848 30.6564 0.646484 1.72839C14.0865 2.75239 22.6625 1.98438 29.9585 1.72839C36.1025 1.60039 41.2225 1.72839 46.0865 3.13638C49.9265 4.16039 53.6385 5.82439 56.7105 8.00039C62.0865 11.8404 65.1585 17.6004 66.1825 21.8244C66.8225 24.1284 67.0785 25.6644 67.0785 28.3524C67.0785 30.7844 66.6945 32.7044 66.0545 35.1364C65.1585 38.2084 63.3665 41.5364 61.0625 44.0964C63.1105 45.7604 65.7985 48.4484 67.4625 51.3924C68.9985 54.2084 70.2785 57.4084 70.5345 61.2484ZM28.5505 21.8244C28.6785 25.9204 28.6785 30.4004 28.6785 35.1364L33.5425 35.0084C37.1265 35.0084 40.0705 31.9364 40.0705 28.3524V28.2244C39.9425 24.6404 36.9985 21.6964 33.4145 21.8244H28.5505ZM43.5265 60.9924C43.5265 56.8964 40.1985 53.5684 36.1025 53.5684L28.6785 53.4404C28.6785 58.5604 28.8065 63.6804 28.9345 68.1604L35.8465 68.2884C40.0705 68.2884 43.3985 65.0884 43.5265 60.9924Z" fill="black"/>
<path d="M127.986 62.6564C126.834 71.2324 126.962 80.1924 127.986 88.7684C110.834 87.8724 93.2985 87.8724 76.1465 88.7684C77.8105 59.8404 77.9385 30.5284 76.1465 1.60039C85.8745 2.49638 95.6025 2.49638 105.33 1.60039C104.05 22.2084 103.666 42.6884 104.178 63.2964C112.114 63.2964 120.05 63.0404 127.986 62.6564Z" fill="black"/>
<path d="M174.529 0.192383C199.489 0.192383 219.713 19.3924 219.713 43.2004V47.0404C219.713 64.3204 208.961 79.2964 193.473 86.0804C187.713 88.6404 181.313 89.9204 174.529 89.9204C149.569 89.9204 129.345 70.7204 129.345 47.0404V43.2004C129.345 19.3924 149.569 0.192383 174.529 0.192383ZM191.169 45.7604V44.3524C191.169 35.1364 183.745 27.7124 174.529 27.7124C165.313 27.7124 157.889 35.1364 157.889 44.3524V45.7604C157.889 54.9764 165.313 62.4004 174.529 62.4004C183.745 62.4004 191.169 54.9764 191.169 45.7604Z" fill="black"/>
<path d="M268.029 0.192383C292.989 0.192383 313.213 19.3924 313.213 43.2004V47.0404C313.213 64.3204 302.461 79.2964 286.973 86.0804C281.213 88.6404 274.813 89.9204 268.029 89.9204C243.069 89.9204 222.845 70.7204 222.845 47.0404V43.2004C222.845 19.3924 243.069 0.192383 268.029 0.192383ZM284.669 45.7604V44.3524C284.669 35.1364 277.245 27.7124 268.029 27.7124C258.813 27.7124 251.389 35.1364 251.389 44.3524V45.7604C251.389 54.9764 258.813 62.4004 268.029 62.4004C277.245 62.4004 284.669 54.9764 284.669 45.7604Z" fill="black"/>
<path d="M382.521 13.2484C386.361 18.1124 389.305 24.6404 389.305 33.0884C389.305 37.0564 388.665 40.5124 387.129 44.4804C385.849 48.0644 383.801 51.6484 380.345 55.2324C377.529 58.1764 374.201 60.7364 367.929 62.7844C361.913 64.7044 357.945 65.2164 346.681 66.1124C346.809 73.4084 347.193 80.9604 347.705 88.7684C342.841 88.2564 337.977 88.0004 333.113 88.0004C328.249 88.1284 323.385 88.3844 318.521 88.7684C320.185 59.7124 320.313 30.6564 318.521 1.60039C334.777 3.00838 345.273 1.72839 353.721 1.72839C359.097 1.60039 363.449 1.98438 367.545 3.26438C373.433 4.92838 378.553 8.25639 382.521 13.2484ZM363.449 32.8324V32.7044C363.449 27.8404 359.097 24.0004 353.721 23.8724C349.497 23.7444 346.937 23.8724 346.041 23.8724C346.041 30.1444 346.041 36.1604 346.169 42.1764C346.937 42.3044 349.113 42.3044 353.721 41.7924C359.609 41.1524 363.449 37.8244 363.449 32.8324Z" fill="black"/>
<path d="M447.278 64.7044C446.894 72.6404 447.278 80.8324 448.43 88.7684C439.086 88.3844 429.614 88.0004 420.142 88.0004C411.31 88.1284 402.478 88.3844 393.646 88.7684C395.31 59.8404 395.438 30.6564 393.646 1.72839C411.822 2.49638 430.254 2.49638 448.558 1.72839C447.278 10.1764 446.894 18.8804 447.534 27.4564C447.022 27.3284 434.606 26.5604 422.062 26.6884V35.1364C428.846 35.1364 435.63 34.8804 442.414 33.9844C442.414 33.9844 441.774 37.0564 441.774 45.3764C441.774 53.5684 442.414 57.1524 442.414 57.1524C435.63 56.2564 428.974 56.0004 422.19 56.0004V65.3444C434.734 65.4724 446.51 64.7044 447.278 64.7044Z" fill="black"/>
<path d="M520.036 65.8564C524.26 73.6644 524.005 81.8564 528.357 88.8964C523.237 88.3844 518.116 88.1284 512.996 88.0004C507.62 88.0004 502.116 88.3844 496.74 88.8964C496.74 86.9764 496.996 81.7284 494.436 74.8164C493.028 70.8484 489.444 65.2164 483.428 63.6804C483.684 71.6164 484.068 79.8084 484.58 88.7684C479.844 88.3844 475.236 88.1284 470.5 88.0004C465.38 88.0004 460.388 88.2564 455.396 88.7684C457.06 59.7124 457.188 30.6564 455.396 1.60039C469.732 3.00838 479.716 1.85638 487.652 1.72839C494.564 1.60039 499.684 1.85638 504.676 3.13638C510.82 4.67239 516.324 8.25639 520.164 12.9924C523.364 16.8324 525.669 21.5684 526.565 26.8164C527.461 31.9364 526.949 37.3124 525.029 42.4324C523.493 46.4004 520.933 50.1124 517.477 53.3124C515.812 54.9764 513.764 56.3844 511.972 57.4084C515.684 59.5844 518.116 62.2724 520.036 65.8564ZM500.708 32.8324V32.7044C500.708 27.8404 496.356 24.0004 490.98 23.8724C486.628 23.7444 484.068 24.0004 483.172 24.1284C483.044 30.2724 483.044 36.4164 483.044 42.1764C483.172 42.1764 485.348 42.4324 490.98 41.7924C496.868 41.1524 500.708 37.8244 500.708 32.8324Z" fill="black"/>
<path d="M584.087 46.4004C588.055 50.7524 590.615 54.2084 592.151 57.4084C593.303 59.5844 594.199 62.5284 594.199 65.6004C594.327 68.6724 593.943 72.3844 592.407 75.8404C591.127 78.6564 589.976 80.3204 588.44 82.1124C587.672 83.0084 586.647 84.0324 585.751 84.6724C584.343 85.6964 583.063 86.7204 581.271 87.6164C579.479 88.5124 577.688 89.1524 575.128 89.6644C572.952 89.9204 570.647 90.0484 567.063 89.7924C562.455 89.5364 559.255 88.7684 553.495 87.6164C548.631 86.5924 540.823 84.0324 532.247 84.6724C534.295 73.4084 535.447 61.6324 534.295 50.6244C534.295 50.6244 544.663 57.2804 548.375 59.4564C556.183 64.0644 561.943 67.2644 563.095 67.5204C563.991 67.7764 564.887 67.6484 565.399 67.1364C566.039 66.6244 566.167 65.9844 566.167 65.4724C566.167 64.9604 566.039 64.4484 565.527 63.9364C564.759 63.1684 563.863 62.2724 563.095 61.5044C562.711 61.2484 562.455 60.9924 562.199 60.7364C560.023 58.6884 557.591 56.6404 555.543 54.8484C554.391 53.8244 553.368 52.9284 552.344 52.1604C548.12 48.3204 543.896 44.6084 539.799 39.6164C535.959 34.7524 534.679 31.5524 534.167 28.2244C533.655 24.8964 533.784 21.5684 534.552 18.6244C535.192 15.6804 536.855 12.7364 538.391 10.6884C539.927 8.64039 542.359 6.46439 544.023 5.31239C550.551 1.08839 556.055 0.320381 564.503 0.832382C572.183 1.21638 581.144 3.39239 589.336 1.47238C587.288 11.8404 586.647 25.0244 587.415 35.2644C587.287 35.2644 585.495 33.9844 582.935 32.4484C580.119 30.6564 576.407 28.3524 573.719 26.6884C571.159 25.2804 567.319 23.1044 565.016 21.9524C563.224 21.1844 561.943 21.8244 561.431 22.8484C561.175 23.6164 561.175 24.5124 561.943 25.2804C562.967 26.5604 566.807 30.1444 568.855 31.9364C572.567 35.2644 579.607 41.5364 584.087 46.4004Z" fill="black"/>
</svg>
