<svg width="680" height="138" viewBox="0 0 680 138" fill="none" xmlns="http://www.w3.org/2000/svg">
<path d="M60.1263 101.688C56.6428 104.463 52.1095 106.616 46.5263 108.147C40.9432 109.678 34.0716 110.443 25.9116 110.443C20.3325 110.443 14.5052 110.092 8.42958 109.391C4.49948 108.937 2.53443 108.71 1.26722 107.288C0 105.866 0 103.813 0 99.707V22.1604C0 18.0499 0 15.9946 1.26057 14.5744C2.52114 13.1542 4.49483 12.9184 8.4422 12.4466C14.2229 11.7557 19.4257 11.4103 24.0505 11.4103C30.8744 11.4103 36.4575 12.0562 40.8 13.3479C45.1902 14.6396 48.7691 16.3859 51.5368 18.5866C56.9768 22.8445 59.6968 28.3703 59.6968 35.1638C59.6968 35.6783 59.6826 36.1861 59.654 36.6873C59.1353 45.7772 58.876 50.3222 59.0664 51.0701C59.0761 51.108 59.0652 51.0657 59.0751 51.1036C59.2707 51.8502 61.4647 55.3302 65.8526 62.2902V62.2902C68.7635 66.8352 70.219 71.8825 70.219 77.4321C70.219 82.934 69.4077 87.6464 67.7853 91.5694C66.2105 95.4925 63.6575 98.8653 60.1263 101.688ZM18.9684 41.7604C18.9684 44.8448 18.9684 46.387 19.8801 47.6819C20.1758 48.102 20.6699 48.596 21.09 48.8918C22.3848 49.8034 23.7513 49.8034 26.4842 49.8034V49.8034C29.4905 49.8034 31.9481 49.4207 33.8568 48.6552C35.8133 47.8419 37.3165 46.8372 38.3663 45.6412C40.0842 43.6797 40.9432 40.9527 40.9432 37.4602C40.9432 30.1404 36.6484 26.4805 28.0589 26.4805C27.9866 26.4805 27.9145 26.4806 27.8427 26.4807C23.8754 26.487 21.8917 26.4901 20.4301 27.9541C18.9684 29.4181 18.9684 31.5457 18.9684 35.8009V41.7604ZM29.5621 64.6583C28.8081 64.6583 28.0711 64.6677 27.3508 64.6863C23.6547 64.7818 21.8066 64.8296 20.3875 66.2858C18.9684 67.7421 18.9684 69.7854 18.9684 73.872V85.9016C18.9684 89.7359 18.9684 91.653 20.3226 93.0959C21.6768 94.5388 23.3218 94.6432 26.6119 94.852C27.5598 94.9122 28.5193 94.9423 29.4905 94.9423C33.1649 94.9423 36.386 94.5117 39.1537 93.6505C41.9691 92.7416 44.3312 91.5216 46.24 89.9906C50.1053 86.8331 52.0379 82.8144 52.0379 77.9345C52.0379 69.0837 44.546 64.6583 29.5621 64.6583Z" fill="black"/>
<path d="M100.067 132.761C99.1466 132.761 98.2666 132.764 97.4272 132.769C91.8486 132.802 89.0593 132.818 87.5844 131.352C86.1095 129.886 86.1095 127.211 86.1095 121.86V43.9973C86.1095 42.7331 86.1095 42.1011 86.128 41.8862C86.3736 39.0447 87.8375 37.5808 90.679 37.3353C90.8938 37.3167 91.6612 37.3167 93.1958 37.3167V37.3167C93.9048 37.3167 94.6356 37.313 95.3884 37.3057C100.35 37.2575 102.83 37.2334 104.312 38.7008C105.794 40.1681 105.794 42.5917 105.794 47.4387V105.538C105.794 110.252 105.794 112.609 107.258 114.074C108.723 115.538 111.08 115.538 115.794 115.538H120.611V115.538C125.123 115.538 127.38 115.538 128.697 116.499C129.176 116.849 129.507 117.187 129.848 117.674C130.782 119.01 130.738 121.149 130.651 125.426C130.581 128.893 130.58 130.352 130.58 130.607V130.607C130.49 132.07 129.226 133.178 127.762 133.108C122.985 132.877 116.02 132.761 106.867 132.761H100.067Z" fill="black"/>
<path d="M159.277 115.267C154.934 111.105 151.498 106.106 148.969 100.269C146.488 94.4323 145.247 88.0454 145.247 81.1083C145.247 74.1234 146.416 67.5212 148.754 61.3018C151.093 55.0823 154.433 49.6044 158.776 44.8681C163.118 40.1317 168.367 36.3761 174.523 33.6013C180.679 30.7786 187.574 29.3673 195.209 29.3673C208.38 29.3673 219.474 33.5295 228.493 41.854C238.133 50.7526 242.952 62.7609 242.952 77.879C242.952 92.5186 237.99 104.694 228.064 114.406C221.956 120.387 214.679 124.501 206.232 126.749C202.081 127.85 197.213 128.4 191.63 128.4C186.095 128.4 180.392 127.252 174.523 124.955C168.701 122.659 163.619 119.43 159.277 115.267ZM165.146 80.1036C165.146 84.5529 165.886 88.6434 167.365 92.3751C168.844 96.1067 170.896 99.3122 173.521 101.991C179.104 107.637 186.286 110.459 195.066 110.459C203.417 110.459 210.121 107.756 215.18 102.35C220.333 96.7526 222.91 89.1218 222.91 79.4578C222.91 70.3678 220.453 62.7849 215.538 56.7089C210.241 50.2024 202.987 46.9492 193.778 46.9492C184.854 46.9492 177.768 50.2503 172.519 56.8525C167.604 63.0241 165.146 70.7745 165.146 80.1036Z" fill="black"/>
<path d="M268.074 111.171C263.732 107.009 260.296 102.01 257.767 96.173C255.286 90.3363 254.045 83.9494 254.045 77.0123C254.045 70.0274 255.214 63.4252 257.552 57.2058C259.891 50.9863 263.231 45.5084 267.573 40.7721C271.916 36.0357 277.165 32.2801 283.321 29.5053C289.476 26.6826 296.372 25.2713 304.007 25.2713C317.178 25.2713 328.272 29.4335 337.291 37.758C346.931 46.6566 351.75 58.6649 351.75 73.783C351.75 88.4226 346.787 100.598 336.862 110.31C330.754 116.291 323.477 120.405 315.03 122.653C310.879 123.754 306.011 124.304 300.428 124.304C294.893 124.304 289.19 123.156 283.321 120.859C277.499 118.563 272.417 115.334 268.074 111.171ZM273.944 76.0076C273.944 80.4569 274.684 84.5474 276.163 88.2791C277.642 92.0107 279.694 95.2162 282.319 97.8953C287.902 103.541 295.084 106.363 303.864 106.363C312.215 106.363 318.919 103.66 323.978 98.2541C329.131 92.6566 331.708 85.0258 331.708 75.3618C331.708 66.2718 329.251 58.6888 324.335 52.6129C319.039 46.1064 311.785 42.8532 302.575 42.8532C293.652 42.8532 286.566 46.1543 281.316 52.7565C276.401 58.9281 273.944 66.6785 273.944 76.0076Z" fill="black"/>
<path d="M375.861 35.2661C375.861 31.0332 375.861 28.9167 377.201 27.477C378.541 26.0373 380.561 25.8922 384.601 25.6019C388.435 25.3265 392.321 25.1888 396.261 25.1888C409.241 25.1888 419.095 28.2507 425.823 34.3744C432.599 40.4503 435.987 49.5642 435.987 61.7161C435.987 72.5762 432.289 81.1638 424.893 87.4789C417.973 93.4113 409.074 96.3775 398.194 96.3775V96.3775C396.003 96.3775 394.114 98.059 394.114 100.249V113.301C394.114 117.172 394.114 119.107 393.1 120.446C392.823 120.811 392.498 121.137 392.132 121.413C390.793 122.427 388.858 122.427 384.987 122.427V122.427C381.117 122.427 379.181 122.427 377.842 121.413C377.477 121.137 377.152 120.811 376.875 120.446C375.861 119.107 375.861 117.172 375.861 113.301V35.2661ZM398.408 42.4836V42.4836C395.99 42.4836 394.114 44.5064 394.114 46.9251V74.7804C394.114 75.7196 394.114 76.1892 394.224 76.7052C394.601 78.4727 396.302 80.174 398.07 80.5513C398.586 80.6615 398.956 80.6615 399.697 80.6615V80.6615C401.892 80.6615 404.182 80.207 406.568 79.298C408.954 78.3411 410.959 77.0255 412.581 75.351C415.969 71.8586 417.663 67.2657 417.663 61.5725C417.663 48.8466 411.245 42.4836 398.408 42.4836Z" fill="black"/>
<path d="M506.421 78.7956C506.85 78.7956 507.26 78.7896 507.651 78.7775C509.932 78.7071 512.515 80.6825 512.464 82.9643V82.9643L512.384 86.261C512.272 90.8703 512.216 93.1749 510.76 94.5968C509.303 96.0187 506.997 96.0187 502.387 96.0187H468.535C463.821 96.0187 461.464 96.0187 459.999 94.5543C458.535 93.0898 458.535 90.7328 458.535 86.0187V4.37224C458.535 2.0505 460.509 0.216547 462.83 0.287051V0.287051L467.84 0.430577C471.18 0.526261 474.807 0.574103 478.72 0.574103C485.665 0.574103 492.561 0.496817 499.409 0.342244C504.85 0.219432 507.571 0.158026 509.082 1.6674C510.593 3.17678 510.532 6.02202 510.41 11.7125C510.375 13.3362 510.358 15.0534 510.358 16.8643C510.358 17.6297 510.358 17.6735 510.358 16.9484V16.9484C510.358 17.876 509.466 18.5506 508.554 18.3778C506.261 17.9429 503.331 17.7254 499.764 17.7254H486.367C482.474 17.7254 480.527 17.7254 479.184 18.7506C478.829 19.0211 478.513 19.3377 478.242 19.6922C477.217 21.0356 477.217 22.9821 477.217 26.8752V26.8752C477.217 30.7683 477.217 32.7148 478.242 34.0582C478.513 34.4127 478.829 34.7293 479.184 34.9998C480.527 36.025 482.474 36.025 486.367 36.025H494.181V36.025C497.8 36.025 499.609 36.025 500.464 36.3483C502.02 36.9371 502.742 37.6502 503.35 39.1995C503.683 40.0504 503.704 41.7248 503.744 45.0736V45.0736C503.775 47.5918 503.79 48.8509 503.462 49.7279C502.927 51.1565 501.994 52.0973 500.57 52.6435C499.695 52.9789 498.336 52.9734 495.617 52.9623C495.403 52.9614 495.187 52.961 494.968 52.961H487.217C482.503 52.961 480.146 52.961 478.681 54.4255C477.217 55.8899 477.217 58.247 477.217 62.961V68.7956C477.217 73.5097 477.217 75.8667 478.681 77.3312C480.146 78.7956 482.503 78.7956 487.217 78.7956H506.421Z" fill="black"/>
<path d="M560.737 99.8547C560.303 98.8702 560.086 98.378 559.837 98.0076C559.037 96.8218 557.985 96.1362 556.578 95.8826C556.138 95.8034 555.528 95.8034 554.307 95.8034V95.8034V95.8034C552.368 95.8034 551.399 95.8034 550.745 95.9845C548.966 96.4764 547.751 97.692 547.259 99.4702C547.078 100.125 547.078 100.978 547.078 102.684V123.277C547.078 127.492 547.078 129.599 545.888 130.999C545.713 131.205 545.522 131.396 545.316 131.571C543.915 132.761 541.808 132.761 537.594 132.761V132.761C533.379 132.761 531.272 132.761 529.872 131.571C529.666 131.396 529.474 131.205 529.299 130.999C528.109 129.599 528.109 127.492 528.109 123.277V45.6081C528.109 41.3809 528.109 39.2673 529.46 37.8252C530.811 36.383 532.828 36.2511 536.862 35.9875C541.603 35.6776 546.893 35.5226 552.733 35.5226C565.999 35.5226 575.876 37.9865 582.366 42.9142C588.904 47.7941 592.173 55.3531 592.173 65.5913C592.173 73.533 589.19 80.3266 583.225 85.9719V85.9719C580.289 88.7003 578.821 90.0644 578.406 91.157C578.158 91.8094 578.093 92.1479 578.081 92.8456C578.061 94.0141 578.716 95.3985 580.026 98.1672L591.099 121.566C593.828 127.632 593.78 128.11 594.481 129.564C594.552 129.711 594.64 129.85 594.741 129.979V129.979C595.89 131.438 595.013 133.463 593.156 133.419C590.112 133.348 586.312 133.05 581.853 133.07C578.954 133.083 577.504 133.09 576.459 132.582C576.064 132.39 575.764 132.195 575.428 131.913C574.538 131.165 574.001 129.948 572.928 127.512L560.737 99.8547ZM554.093 52.4587V52.4587C552 52.4587 550.953 52.4587 549.937 52.9401C548.966 53.4004 548.02 54.3464 547.559 55.318C547.078 56.3342 547.078 57.5044 547.078 59.8447V71.9772C547.078 75.7169 547.078 77.5868 548.286 78.9924C548.435 79.1658 548.645 79.376 548.819 79.5251C550.224 80.7332 551.919 80.7332 555.309 80.7332V80.7332C558.459 80.7332 561.107 80.4701 563.255 79.9438C565.402 79.3697 567.263 78.5086 568.838 77.3604C572.226 74.8248 573.92 71.0213 573.92 65.9501C573.92 60.8788 572.154 57.3146 568.623 55.2574C565.331 53.3916 560.487 52.4587 554.093 52.4587Z" fill="black"/>
<path d="M666.46 43.4097C668.559 44.36 669.608 44.8352 670.394 45.9607C670.512 46.13 670.655 46.3681 670.749 46.5521C671.372 47.7751 671.287 49.0992 671.116 51.7474L670.554 60.4775C670.357 63.5335 666.996 65.2981 664.368 63.725V63.725C663.846 63.4123 663.399 62.9825 663.058 62.4783C660.025 57.9973 659.641 58.4775 651.583 56.9797C648.911 56.4535 646.334 56.1903 643.853 56.1903C641.419 56.1903 639.319 56.4056 637.554 56.8362C635.836 57.2668 634.357 57.8887 633.116 58.702C630.491 60.4243 629.179 62.6729 629.179 65.4477C629.179 69.0837 630.324 71.8107 632.615 73.6287C635.478 75.8294 640.226 77.3843 646.859 78.2933C653.492 79.1545 658.813 80.3505 662.821 81.8814C666.83 83.4124 670.122 85.35 672.699 87.6942C677.566 92.0957 680 98.3151 680 106.353C680 116.878 676.039 124.987 668.118 130.68C661.342 135.56 652.8 138 642.493 138C634.189 138 625.982 136.421 617.87 133.264C617.081 132.953 616.321 132.628 615.591 132.288C613.512 131.321 612.473 130.838 611.686 129.557C610.898 128.277 610.943 126.903 611.034 124.156L611.479 110.606C611.554 108.326 614.005 106.924 616.008 108.017V108.017C616.502 108.286 616.912 108.69 617.201 109.173C622.927 118.77 627.89 120.777 641.061 120.777C650.653 120.777 656.999 118.457 660.101 113.816C661.151 112.237 661.676 110.491 661.676 108.577C661.676 106.616 661.366 105.013 660.745 103.769C660.125 102.477 659.099 101.377 657.667 100.468C654.9 98.65 650.247 97.4301 643.709 96.8081C637.172 96.1862 631.827 95.014 627.676 93.2917C623.524 91.5694 620.208 89.4405 617.726 86.9048C613.241 82.312 610.998 75.9012 610.998 67.6724C610.998 59.1565 613.98 52.2673 619.945 47.0047C626.006 41.6464 634.166 38.9672 644.425 38.9672C652.576 38.9672 659.921 40.4481 666.46 43.4097Z" fill="black"/>
</svg>
