<svg width="72" height="72" viewBox="0 0 72 72" fill="none" xmlns="http://www.w3.org/2000/svg">
<path d="M72 36C72 55.8823 55.8823 72 36 72C16.1177 72 0 55.8823 0 36C0 16.1177 16.1177 0 36 0C55.8823 0 72 16.1177 72 36Z" fill="#FFF000"/>
<path d="M47.7761 53.0572L40.7188 44.9062L37.5418 39.6458L37.672 45.9218L35.8751 56.5207L27.4376 54.177L30.797 43.9947L33.7657 38.6302C33.6616 38.6649 33.3664 38.8385 32.8803 39.151C32.3768 39.4461 31.8126 39.7847 31.1876 40.1666C30.5626 40.5486 29.9897 40.8958 29.4689 41.2083C28.948 41.5208 28.6182 41.7118 28.4793 41.7812L18.4012 45.401L15.8231 37.1458L26.6043 35.0625L32.7501 34.9583C32.6633 34.9062 32.3682 34.75 31.8647 34.4896C31.3612 34.1944 30.7883 33.8646 30.146 33.5C29.521 33.118 28.9394 32.7795 28.4012 32.4844C27.8803 32.1719 27.5592 31.9722 27.4376 31.8854L19.0522 25.1146L25.172 18.9948L32.1251 26.9896L35.3543 32.25C35.3543 32.1805 35.3543 31.8507 35.3543 31.2604C35.3369 30.6528 35.3282 29.9844 35.3282 29.2552C35.3109 28.5087 35.2935 27.8316 35.2761 27.224C35.2761 26.599 35.2761 26.217 35.2761 26.0781L37.1772 15.3751L45.4323 17.7969L41.9949 27.849L39.0522 33.2917L44.4167 30.1667L54.3646 26.3646L56.8386 35.0364L46.448 36.8333L40.198 37.0416C40.2674 37.0764 40.5539 37.2413 41.0574 37.5364C41.5608 37.8316 42.1337 38.1614 42.7761 38.526C43.4185 38.8906 44.0001 39.2291 44.5209 39.5416C45.0244 39.8368 45.3369 40.0277 45.4584 40.1145L53.8959 46.9374L47.7761 53.0572Z" fill="black"/>
</svg>
