<svg width="72" height="72" viewBox="0 0 72 72" fill="none" xmlns="http://www.w3.org/2000/svg">
<path d="M72 36C72 55.8823 55.8823 72 36 72C16.1178 72 0 55.8823 0 36C0 16.1178 16.1178 0 36 0C55.8823 0 72 16.1178 72 36Z" fill="#FFF000"/>
<path d="M37.4639 53.3515L37.8156 53.7072L38.1711 53.3554L55.3517 36.3554L55.7109 36L55.3517 35.6446L38.1711 18.6446L37.8156 18.2928L37.4639 18.6485L34.7794 21.3637L34.4264 21.7208L34.785 22.0723L46.659 33.7128L45.0263 33.5544L45.0022 33.5521H44.978H17H16.4923L16.5001 34.0597L16.5597 37.9556L16.5673 38.4479H17.0597H44.978H45.007L45.0358 38.4446L46.6328 38.2587L34.7842 49.9285L34.4272 50.28L34.7794 50.6363L37.4639 53.3515Z" fill="black" stroke="black"/>
</svg>
