<svg width="290" height="109" viewBox="0 0 290 109" fill="none" xmlns="http://www.w3.org/2000/svg">
<rect y="45" width="218" height="64" fill="black"/>
<rect width="290" height="64" fill="black"/>
<path d="M27.1621 45V18.3691H31.3633V29.25H41.0664V18.3691H45.2676V45H41.0664V32.7832H31.3633V45H27.1621ZM61.5034 33.75H66.478L63.9995 25.1543L61.5034 33.75ZM53.9448 45L61.5386 18.3691H66.1441L73.7378 45H69.6773L67.48 37.2832H60.5015L58.3042 45H53.9448ZM96.3721 34.7168V18.3691H100.556V45H97.2159L86.458 24.5742V45H82.2745V18.3691H87.6885L96.3721 34.7168ZM115.456 41.4668H117.987C120.436 41.4668 122.323 40.582 123.647 38.8125C124.948 37.0547 125.598 34.7402 125.598 31.8691C125.598 26.3965 123.846 23.1738 120.342 22.2012C119.628 22.002 118.842 21.9023 117.987 21.9023H115.456V41.4668ZM111.254 45V18.3691H117.53C123.952 18.3691 127.831 20.9531 129.167 26.1211C129.588 27.7734 129.799 29.5137 129.799 31.3418C129.799 33.1699 129.67 34.7109 129.413 35.9648C129.167 37.2188 128.739 38.4082 128.129 39.5332C127.52 40.6582 126.758 41.6191 125.844 42.416C123.84 44.1387 121.069 45 117.53 45H111.254ZM138.582 34.9805C138.395 33.8789 138.301 32.7656 138.301 31.6406C138.301 30.5156 138.389 29.4082 138.565 28.3184C138.74 27.2285 138.998 26.168 139.338 25.1367C139.69 24.0938 140.141 23.1387 140.691 22.2715C141.254 21.3926 141.893 20.625 142.607 19.9688C144.131 18.5742 146.024 17.877 148.285 17.877C151.156 17.877 153.424 19.3125 155.088 22.1836C155.897 23.5781 156.441 25.0137 156.723 26.4902V26.5078L153.066 27.4922C152.879 26.2383 152.656 25.3242 152.399 24.75C152.141 24.1641 151.883 23.6777 151.625 23.291C151.367 22.8926 151.086 22.5645 150.781 22.3066C150.055 21.709 149.229 21.4102 148.303 21.4102C147.389 21.4102 146.604 21.6211 145.947 22.043C145.291 22.4531 144.752 22.998 144.33 23.6777C143.908 24.3457 143.557 25.1309 143.275 26.0332C142.76 27.6973 142.502 29.5723 142.502 31.6582C142.502 37.1895 143.815 40.4941 146.44 41.5723C147.002 41.8066 147.6 41.9238 148.232 41.9238C148.865 41.9238 149.428 41.8418 149.92 41.6777C150.424 41.5137 150.846 41.3027 151.186 41.0449C151.525 40.7754 151.824 40.459 152.082 40.0957C152.352 39.7324 152.563 39.3691 152.715 39.0059C152.879 38.6309 153.008 38.25 153.102 37.8633C153.277 37.1836 153.365 36.5508 153.365 35.9648L157.285 36.5098C156.758 38.7598 155.838 40.7109 154.525 42.3633C152.861 44.4258 150.77 45.457 148.25 45.457C145.156 45.457 142.666 43.9863 140.779 41.0449C139.713 39.3926 138.981 37.3711 138.582 34.9805ZM170.849 29.9004H175.296C176.527 29.9004 177.552 29.5664 178.373 28.8984C179.24 28.1836 179.673 27.0879 179.673 25.6113C179.673 23.1387 177.711 21.9023 173.785 21.9023H170.849V29.9004ZM166.648 45V18.3691H175.595C179.709 18.3691 182.31 19.8398 183.4 22.7812C183.716 23.6367 183.875 24.5215 183.875 25.4355C183.875 26.3496 183.769 27.1816 183.558 27.9316C183.359 28.6816 183.06 29.3789 182.662 30.0234C181.783 31.4297 180.488 32.3145 178.777 32.6777L183.699 45H179.392L174.787 33.4512H170.849V45H166.648ZM198.282 33.75H203.257L200.778 25.1543L198.282 33.75ZM190.724 45L198.318 18.3691H202.923L210.517 45H206.456L204.259 37.2832H197.28L195.083 45H190.724ZM219.194 45V18.3691H234.434V21.9023H223.395V29.2676H231.077V32.8184H223.395V45H219.194ZM241.863 21.9023V18.3691H260.444V21.9023H253.254V45H249.053V21.9023H241.863Z" fill="white"/>
<path d="M32.5938 80.75H37.5684L35.0898 72.1543L32.5938 80.75ZM25.0352 92L32.6289 65.3691H37.2344L44.8281 92H40.7676L38.5703 84.2832H31.5918L29.3945 92H25.0352ZM57.7066 88.4668H60.2378C62.687 88.4668 64.5737 87.582 65.898 85.8125C67.1987 84.0547 67.8491 81.7402 67.8491 78.8691C67.8491 73.3965 66.0972 70.1738 62.5933 69.2012C61.8784 69.002 61.0933 68.9023 60.2378 68.9023H57.7066V88.4668ZM53.5054 92V65.3691H59.7808C66.2027 65.3691 70.0816 67.9531 71.4175 73.1211C71.8394 74.7734 72.0503 76.5137 72.0503 78.3418C72.0503 80.1699 71.9214 81.7109 71.6636 82.9648C71.4175 84.2188 70.9898 85.4082 70.3804 86.5332C69.771 87.6582 69.0093 88.6191 68.0952 89.416C66.0913 91.1387 63.3198 92 59.7808 92H53.5054ZM88.5147 82.9297L93.7354 65.3691H98.1827L90.2725 92H86.7569L78.8467 65.3691H83.294L88.5147 82.9297ZM106.438 92V65.3691H110.639V92H106.438ZM119.299 85.1797L122.674 84.0723C122.686 84.0723 122.709 84.1602 122.744 84.3359C122.779 84.5117 122.838 84.7461 122.92 85.0391C123.014 85.3203 123.137 85.6367 123.289 85.9883C123.453 86.3281 123.688 86.6738 123.992 87.0254C124.297 87.3652 124.654 87.6758 125.065 87.957C125.979 88.6016 127.115 88.9238 128.475 88.9238C129.834 88.9238 130.83 88.5898 131.463 87.9219C132.107 87.2539 132.43 86.4629 132.43 85.5488C132.43 84.623 132.336 83.8789 132.149 83.3164C131.961 82.7422 131.633 82.2441 131.164 81.8223C130.379 81.1191 129.02 80.4863 127.086 79.9238C123.676 78.9277 121.484 77.3867 120.512 75.3008C120.008 74.2109 119.756 72.9277 119.756 71.4512C119.756 70.209 120.195 68.9961 121.074 67.8125C122.609 65.8555 124.789 64.877 127.613 64.877C129.852 64.877 131.686 65.5508 133.115 66.8984C134.135 67.8477 134.897 69.043 135.4 70.4844L135.734 71.416C135.84 71.6973 135.91 71.8789 135.945 71.9609L132.518 73.1738C131.744 70.7129 130.537 69.1953 128.897 68.6211C128.486 68.4805 128.059 68.4102 127.613 68.4102C125.176 68.4102 123.957 69.6641 123.957 72.1719C123.957 73.3203 124.297 74.1992 124.977 74.8086C125.539 75.3359 126.277 75.752 127.191 76.0566L128.035 76.3379C128.516 76.502 128.779 76.5898 128.826 76.6016L129.6 76.8652C131.604 77.5684 132.957 78.1895 133.66 78.7285C134.691 79.5254 135.365 80.2578 135.682 80.9258C136.315 82.2969 136.631 83.7441 136.631 85.2676C136.631 86.4629 136.291 87.6758 135.611 88.9062C134.697 90.5586 133.25 91.6426 131.27 92.1582C130.508 92.3574 129.676 92.457 128.774 92.457C127.871 92.457 127.022 92.375 126.225 92.2109C125.44 92.0469 124.76 91.8242 124.186 91.543C123.611 91.2617 123.084 90.9395 122.604 90.5762C122.123 90.2129 121.719 89.832 121.391 89.4336C121.063 89.0234 120.775 88.6191 120.529 88.2207C120.283 87.8105 120.084 87.4238 119.932 87.0605C119.791 86.6973 119.674 86.375 119.58 86.0938C119.486 85.8125 119.416 85.5898 119.369 85.4258C119.334 85.2617 119.311 85.1797 119.299 85.1797ZM149.298 74.9668C149.181 75.6582 149.099 76.3086 149.052 76.918C149.005 77.5273 148.982 78.1543 148.982 78.7988C148.982 79.4316 149.005 80.0586 149.052 80.6797C149.099 81.3008 149.181 81.957 149.298 82.6484C149.427 83.3398 149.586 83.9785 149.773 84.5645C149.961 85.1504 150.213 85.7188 150.529 86.2695C150.857 86.8086 151.22 87.2715 151.619 87.6582C152.521 88.502 153.658 88.9238 155.029 88.9238C158.838 88.9238 160.742 85.5371 160.742 78.7637C160.742 73.2441 159.453 69.916 156.875 68.7793C156.312 68.5332 155.685 68.4102 154.994 68.4102C154.314 68.4102 153.681 68.5332 153.095 68.7793C152.521 69.0254 152.029 69.3535 151.619 69.7637C151.22 70.1621 150.857 70.6484 150.529 71.2227C150.213 71.7969 149.961 72.3887 149.773 72.998C149.586 73.6074 149.427 74.2637 149.298 74.9668ZM144.957 81.4355C144.839 80.5449 144.781 79.6602 144.781 78.7812C144.781 77.9023 144.834 77.0176 144.939 76.127C145.045 75.2363 145.22 74.334 145.466 73.4199C145.713 72.4941 146.017 71.6211 146.38 70.8008C146.744 69.9805 147.201 69.207 147.752 68.4805C148.314 67.7422 148.941 67.1094 149.632 66.582C151.121 65.4453 152.931 64.877 155.064 64.877C157.994 64.877 160.338 66.084 162.095 68.498C163.994 71.123 164.943 74.5508 164.943 78.7812C164.943 83.0938 164.029 86.4922 162.201 88.9766C160.49 91.2969 158.111 92.457 155.064 92.457C152.17 92.457 149.796 91.291 147.945 88.959C146.375 86.9902 145.379 84.4824 144.957 81.4355ZM178.911 76.9004H183.359C184.589 76.9004 185.614 76.5664 186.435 75.8984C187.302 75.1836 187.735 74.0879 187.735 72.6113C187.735 70.1387 185.773 68.9023 181.847 68.9023H178.911V76.9004ZM174.71 92V65.3691H183.657C187.771 65.3691 190.372 66.8398 191.462 69.7812C191.778 70.6367 191.937 71.5215 191.937 72.4355C191.937 73.3496 191.831 74.1816 191.62 74.9316C191.421 75.6816 191.122 76.3789 190.724 77.0234C189.845 78.4297 188.55 79.3145 186.839 79.6777L191.761 92H187.454L182.849 80.4512H178.911V92H174.71Z" fill="white"/>
</svg>
